<svg width="48" height="48" viewBox="0 0 48 48" fill="none" xmlns="http://www.w3.org/2000/svg">
<path d="M17.1428 22.2857C21.8767 22.2857 25.7143 18.4481 25.7143 13.7143C25.7143 8.98039 21.8767 5.14282 17.1428 5.14282C12.409 5.14282 8.57141 8.98039 8.57141 13.7143C8.57141 18.4481 12.409 22.2857 17.1428 22.2857Z" stroke="black" stroke-width="3" stroke-linecap="round" stroke-linejoin="round"/>
<path d="M1.71429 46.2857H17.1429H32.5714V44.4271C32.5441 41.8138 31.8549 39.25 30.5682 36.9754C29.2815 34.7006 27.4392 32.7892 25.2135 31.4195C22.9877 30.0498 20.4511 29.2666 17.8406 29.143C17.6079 29.132 17.3753 29.1262 17.1429 29.1257C16.9105 29.1262 16.6778 29.132 16.4451 29.143C13.8346 29.2666 11.298 30.0498 9.07225 31.4195C6.84652 32.7892 5.00425 34.7006 3.71751 36.9754C2.43079 39.25 1.74159 41.8138 1.71429 44.4271V46.2857Z" stroke="black" stroke-width="3" stroke-linecap="round" stroke-linejoin="round"/>
<path d="M30.8572 22.2857C35.591 22.2857 39.4286 18.4481 39.4286 13.7143C39.4286 8.98039 35.591 5.14282 30.8572 5.14282" stroke="black" stroke-width="3" stroke-linecap="round" stroke-linejoin="round"/>
<path d="M39.4286 46.2861H46.2857V44.4271C46.2583 41.8139 45.5691 39.25 44.2824 36.9755C42.9956 34.7006 41.1535 32.7892 38.9276 31.4196C37.489 30.5341 35.9201 29.8938 34.2857 29.5183" stroke="black" stroke-width="3" stroke-linecap="round" stroke-linejoin="round"/>
</svg>
