<svg width="48" height="48" viewBox="0 0 48 48" fill="none" xmlns="http://www.w3.org/2000/svg">
<g clip-path="url(#clip0_58_42)">
<path d="M24.0067 24.8571C23.5333 24.8571 23.1495 24.4734 23.1495 24C23.1495 23.5266 23.5333 23.1429 24.0067 23.1429" stroke="black" stroke-width="2" stroke-linecap="round" stroke-linejoin="round"/>
<path d="M24.0067 24.8571C24.4801 24.8571 24.8639 24.4734 24.8639 24C24.8639 23.5266 24.4801 23.1429 24.0067 23.1429" stroke="black" stroke-width="2" stroke-linecap="round" stroke-linejoin="round"/>
<path d="M14.5781 24.8571C14.1047 24.8571 13.7209 24.4734 13.7209 24C13.7209 23.5266 14.1047 23.1429 14.5781 23.1429" stroke="black" stroke-width="2" stroke-linecap="round" stroke-linejoin="round"/>
<path d="M14.5781 24.8571C15.0515 24.8571 15.4353 24.4734 15.4353 24C15.4353 23.5266 15.0515 23.1429 14.5781 23.1429" stroke="black" stroke-width="2" stroke-linecap="round" stroke-linejoin="round"/>
<path d="M33.4353 24.8571C32.9619 24.8571 32.5781 24.4734 32.5781 24C32.5781 23.5266 32.9619 23.1429 33.4353 23.1429" stroke="black" stroke-width="2" stroke-linecap="round" stroke-linejoin="round"/>
<path d="M33.4353 24.8571C33.9087 24.8571 34.2926 24.4734 34.2926 24C34.2926 23.5266 33.9087 23.1429 33.4353 23.1429" stroke="black" stroke-width="2" stroke-linecap="round" stroke-linejoin="round"/>
<path d="M23.9936 1.92188C20 1.92312 16.0814 3.00759 12.6553 5.05978C9.22922 7.11199 6.42392 10.055 4.53821 13.5755C2.65249 17.096 1.75698 21.062 1.94705 25.0511C2.13712 29.0403 3.40566 32.9032 5.61756 36.2283L1.91516 46.079L14.3131 43.837C17.2985 45.2959 20.5746 46.0622 23.8973 46.0786C27.2201 46.0951 30.5036 45.3614 33.5033 43.932C36.503 42.503 39.1416 40.415 41.2217 37.824C43.3022 35.2334 44.7713 32.2063 45.5187 28.9687C46.2665 25.7312 46.274 22.3666 45.5403 19.1259C44.8066 15.8851 43.3512 12.8517 41.282 10.2518C39.2129 7.65189 36.5835 5.55257 33.5902 4.11027C30.5968 2.66797 27.3164 1.91992 23.9936 1.92188Z" stroke="black" stroke-width="2" stroke-linecap="round" stroke-linejoin="round"/>
</g>
<defs>
<clipPath id="clip0_58_42">
<rect width="48" height="48" fill="white"/>
</clipPath>
</defs>
</svg>
