<svg width="48" height="48" viewBox="0 0 48 48" fill="none" xmlns="http://www.w3.org/2000/svg">
<g clip-path="url(#clip0_63_189)">
<path d="M24.0001 46.2857C36.3083 46.2857 46.2858 36.3082 46.2858 23.9999C46.2858 11.6919 36.3083 1.71423 24.0001 1.71423C11.692 1.71423 1.71436 11.6919 1.71436 23.9999C1.71436 36.3082 11.692 46.2857 24.0001 46.2857Z" stroke="black" stroke-width="2" stroke-linecap="round" stroke-linejoin="round"/>
<path d="M18.8572 34.2856H29.1429" stroke="black" stroke-width="2" stroke-linecap="round" stroke-linejoin="round"/>
<path d="M24.0001 34.2856V22.2856H20.5715" stroke="black" stroke-width="2" stroke-linecap="round" stroke-linejoin="round"/>
<path d="M24 14.5713C23.5266 14.5713 23.1428 14.1876 23.1428 13.7142C23.1428 13.2408 23.5266 12.8571 24 12.8571" stroke="black" stroke-width="2" stroke-linecap="round" stroke-linejoin="round"/>
<path d="M24 14.5713C24.4734 14.5713 24.8571 14.1876 24.8571 13.7142C24.8571 13.2408 24.4734 12.8571 24 12.8571" stroke="black" stroke-width="2" stroke-linecap="round" stroke-linejoin="round"/>
</g>
<defs>
<clipPath id="clip0_63_189">
<rect width="48" height="48" fill="white"/>
</clipPath>
</defs>
</svg>
