<svg width="54" height="80" viewBox="0 0 54 80" fill="none" xmlns="http://www.w3.org/2000/svg">
<path d="M51 70.3843C50.9845 71.5724 50.723 72.7319 50.2439 73.7369C49.7648 74.742 49.0865 75.5543 48.2826 76.085C47.4798 76.6848 46.5734 77 45.6514 77C44.7294 77 43.823 76.6848 43.0203 76.085L5.70966 45.5866C4.89789 45.0697 4.21292 44.2605 3.73327 43.252C3.25406 42.2436 3 41.0768 3 39.8859C3 38.6949 3.25406 37.5282 3.73327 36.5197C4.21292 35.5113 4.89789 34.7021 5.70966 34.1852L43.0203 3.91449C43.823 3.31502 44.7294 3 45.6514 3C46.5734 3 47.4798 3.31502 48.2826 3.91449C49.0865 4.44573 49.7648 5.25801 50.2439 6.26307C50.723 7.2681 50.9845 8.42751 51 9.61519V70.3843Z" stroke="#787880" stroke-opacity="0.2" stroke-width="5.75116" stroke-linecap="round" stroke-linejoin="round"/>
</svg>
