<svg width="54" height="80" viewBox="0 0 54 80" fill="none" xmlns="http://www.w3.org/2000/svg">
<path d="M3 70.3843C3.01548 71.5724 3.277 72.7319 3.75609 73.7369C4.23518 74.742 4.91354 75.5543 5.71742 76.085C6.52018 76.6848 7.42655 77 8.34858 77C9.2706 77 10.177 76.6848 10.9797 76.085L48.2903 45.5866C49.1021 45.0697 49.7871 44.2605 50.2667 43.252C50.7459 42.2436 51 41.0768 51 39.8859C51 38.6949 50.7459 37.5282 50.2667 36.5197C49.7871 35.5113 49.1021 34.7021 48.2903 34.1852L10.9797 3.91449C10.177 3.31502 9.2706 3 8.34858 3C7.42655 3 6.52018 3.31502 5.71742 3.91449C4.91354 4.44573 4.23518 5.25801 3.75609 6.26307C3.277 7.2681 3.01548 8.42751 3 9.61519V70.3843Z" stroke="#787880" stroke-opacity="0.2" stroke-width="5.75116" stroke-linecap="round" stroke-linejoin="round"/>
</svg>
