<svg width="32" height="32" viewBox="0 0 32 32" fill="none" xmlns="http://www.w3.org/2000/svg">
<g clip-path="url(#clip0_64_10)">
<path d="M13.2855 25.144L18.2637 30.0995C18.5692 30.4124 18.9511 30.6403 19.3716 30.7605C19.7921 30.8807 20.2368 30.8889 20.6615 30.7845C21.0889 30.6851 21.4835 30.4775 21.8075 30.1815C22.1314 29.8855 22.3738 29.5113 22.5112 29.0947L30.6865 4.59148C30.8572 4.13237 30.8924 3.63392 30.788 3.15539C30.6835 2.67683 30.444 2.23834 30.0977 1.892C29.7514 1.54566 29.3128 1.30606 28.8344 1.20166C28.3558 1.09726 27.8572 1.13246 27.3983 1.30308L2.89503 9.4784C2.46399 9.62563 2.0801 9.88531 1.78301 10.2306C1.48593 10.5758 1.28643 10.9942 1.20515 11.4423C1.12125 11.8499 1.13992 12.272 1.2595 12.6706C1.37908 13.0692 1.59582 13.4318 1.89023 13.7259L8.14733 19.983L7.94179 27.9072L13.2855 25.144Z" stroke="black" stroke-linecap="round" stroke-linejoin="round"/>
<path d="M29.956 1.8053L8.14746 19.9828" stroke="black" stroke-linecap="round" stroke-linejoin="round"/>
</g>
<defs>
<clipPath id="clip0_64_10">
<rect width="32" height="32" fill="white"/>
</clipPath>
</defs>
</svg>
