<svg width="48" height="48" viewBox="0 0 48 48" fill="none" xmlns="http://www.w3.org/2000/svg">
<path d="M17.9316 7.71429L19.4059 3.90858C19.6545 3.26423 20.092 2.70999 20.6609 2.31845C21.2299 1.92691 21.9038 1.71633 22.5945 1.71429H25.4059C26.0966 1.71633 26.7705 1.92691 27.3394 2.31845C27.9084 2.70999 28.3458 3.26423 28.5945 3.90858L30.0688 7.71429L35.0743 10.5943L39.1201 9.97715C39.7938 9.88571 40.4795 9.99659 41.0901 10.2957C41.7004 10.5949 42.2082 11.0687 42.5486 11.6572L43.9201 14.0572C44.2715 14.6549 44.4337 15.3452 44.3846 16.0369C44.3356 16.7286 44.0781 17.3891 43.6458 17.9314L41.1429 21.12V26.88L43.7143 30.0686C44.1467 30.6109 44.4042 31.2715 44.4532 31.9631C44.5022 32.6548 44.3401 33.3451 43.9886 33.9429L42.6172 36.3429C42.2767 36.9312 41.769 37.405 41.1587 37.7044C40.5481 38.0033 39.8623 38.1144 39.1886 38.0229L35.1429 37.4057L30.1373 40.2857L28.663 44.0914C28.4144 44.7357 27.977 45.2901 27.408 45.6816C26.8391 46.0732 26.1651 46.2837 25.4745 46.2857H22.5945C21.9038 46.2837 21.2299 46.0732 20.6609 45.6816C20.092 45.2901 19.6545 44.7357 19.4059 44.0914L17.9316 40.2857L12.9259 37.4057L8.88019 38.0229C8.20655 38.1144 7.5209 38.0033 6.91041 37.7044C6.29995 37.405 5.79218 36.9312 5.45162 36.3429L4.08019 33.9429C3.72876 33.3451 3.56687 32.6548 3.61583 31.9631C3.66479 31.2715 3.92234 30.6109 4.35448 30.0686L6.85734 26.88V21.12L4.28591 17.9314C3.85377 17.3891 3.59622 16.7286 3.54726 16.0369C3.4983 15.3452 3.66019 14.6549 4.01162 14.0572L5.38305 11.6572C5.72361 11.0687 6.23138 10.5949 6.84184 10.2957C7.45233 9.99659 8.13798 9.88571 8.81162 9.97715L12.8573 10.5943L17.9316 7.71429ZM17.1431 24C17.1431 25.3562 17.5452 26.682 18.2987 27.8096C19.0522 28.9373 20.1231 29.8162 21.3761 30.3352C22.6291 30.8542 24.0078 30.99 25.338 30.7254C26.6681 30.4608 27.8899 29.8077 28.8489 28.8487C29.8079 27.8898 30.461 26.6679 30.7256 25.3378C30.9902 24.0076 30.8544 22.6289 30.3354 21.3759C29.8164 20.1229 28.9375 19.052 27.8098 18.2985C26.6822 17.545 25.3564 17.1429 24.0002 17.1429C22.1816 17.1429 20.4374 17.8653 19.1515 19.1513C17.8655 20.4372 17.1431 22.1814 17.1431 24Z" stroke="black" stroke-width="3" stroke-linecap="round" stroke-linejoin="round"/>
</svg>
