<svg width="50" height="50" viewBox="0 0 50 50" fill="none" xmlns="http://www.w3.org/2000/svg">
<path d="M36.6305 29.6399L33.5253 32.4137L31.1782 28.7438" stroke="black" stroke-width="2" stroke-linecap="round" stroke-linejoin="round"/>
<path d="M33.3539 32.1372C33.8665 30.9732 34.2144 29.6827 34.3567 28.3034C34.9934 22.1332 31.2772 16.5214 26.0563 15.7689C24.4039 15.5308 22.7988 15.8079 21.3564 16.4937" stroke="black" stroke-width="2" stroke-linecap="round" stroke-linejoin="round"/>
<path d="M13.1653 24.4126L16.2705 21.6389L18.6176 25.3087" stroke="black" stroke-width="2" stroke-linecap="round" stroke-linejoin="round"/>
<path d="M16.442 21.9153C15.9293 23.0793 15.5815 24.3698 15.4392 25.7491C14.8025 31.9193 18.5187 37.5311 23.7395 38.2838C25.3919 38.5216 26.9971 38.2445 28.4394 37.5589" stroke="black" stroke-width="2" stroke-linecap="round" stroke-linejoin="round"/>
<path d="M49 14.0909C49 12.9336 48.6108 11.8237 47.9185 11.0053C47.2262 10.187 46.2869 9.72727 45.3077 9.72727H37.9231L32.3846 1H17.6154L12.0769 9.72727H4.69231C3.71303 9.72727 2.7739 10.187 2.08145 11.0053C1.38901 11.8237 1 12.9336 1 14.0909V44.6364C1 45.7936 1.38901 46.9037 2.08145 47.7219C2.7739 48.5401 3.71303 49 4.69231 49H45.3077C46.2869 49 47.2262 48.5401 47.9185 47.7219C48.6108 46.9037 49 45.7936 49 44.6364V14.0909Z" stroke="black" stroke-width="2" stroke-linecap="round" stroke-linejoin="round"/>
</svg>
